<?xml version="1.0" standalone="no"?>
<!DOCTYPE svg PUBLIC "-//W3C//DTD SVG 20010904//EN"
 "http://www.w3.org/TR/2001/REC-SVG-20010904/DTD/svg10.dtd">
<svg version="1.0" xmlns="http://www.w3.org/2000/svg"
 width="450.000000pt" height="450.000000pt" viewBox="0 0 450.000000 450.000000"
 preserveAspectRatio="xMidYMid meet">
<metadata>
Created by potrace 1.10, written by Peter Selinger 2001-2011
</metadata>
<g transform="translate(0.000000,450.000000) scale(0.100000,-0.100000)"
fill="#000000" stroke="none">
<path d="M3700 4349 c-89 -15 -175 -61 -244 -132 -174 -178 -179 -416 -13
-603 71 -79 168 -124 280 -131 193 -12 341 70 429 238 32 62 33 67 33 189 0
119 -1 128 -30 184 -91 181 -276 285 -455 255z m168 -233 c60 -30 87 -60 107
-115 24 -68 20 -145 -11 -202 -71 -129 -253 -160 -357 -61 -119 113 -83 322
67 388 51 22 140 18 194 -10z"/>
<path d="M3790 3980 c-27 -14 -47 -18 -86 -13 -46 5 -53 3 -68 -18 -9 -13 -16
-34 -16 -48 0 -56 77 -131 134 -131 33 0 106 48 131 86 23 36 23 99 0 124 -22
25 -50 25 -95 0z"/>
<path d="M1565 4199 c-192 -4 -361 -10 -375 -14 -319 -92 -506 -208 -676 -418
-80 -98 -127 -183 -176 -310 -74 -195 -73 -190 -72 -862 1 -651 1 -643 60
-831 74 -234 267 -498 437 -597 l64 -38 7 -423 c4 -233 11 -441 16 -462 10
-45 59 -94 93 -94 61 0 164 77 437 324 25 23 83 75 130 116 105 93 396 365
430 402 l25 27 655 3 655 4 89 27 c162 48 346 151 465 261 52 48 179 222 215
295 39 78 81 203 95 285 14 75 15 1555 2 1575 -8 12 -17 8 -50 -22 -45 -40
-105 -74 -166 -92 -45 -14 -43 5 -26 -185 14 -152 14 -1071 0 -1180 -22 -183
-105 -354 -234 -485 -85 -87 -134 -123 -230 -173 -118 -61 -108 -61 -877 -63
l-703 -2 -215 -211 c-264 -258 -527 -493 -541 -479 -5 5 -12 161 -16 350 l-6
342 -49 20 c-114 47 -270 180 -350 299 -58 86 -94 161 -134 282 l-29 85 -3
601 c-3 574 -2 605 18 700 23 112 73 225 148 336 96 141 232 243 413 309 165
61 152 60 1103 59 478 0 897 3 932 6 l62 7 7 51 c4 28 16 78 26 110 10 33 16
63 13 68 -6 9 -1084 7 -1669 -3z"/>
<path d="M1475 3723 c-116 -15 -213 -63 -305 -150 -148 -139 -199 -348 -134
-547 23 -70 39 -99 77 -142 28 -33 33 -46 38 -116 3 -43 10 -83 16 -89 8 -8
31 -2 85 24 92 45 112 50 135 38 10 -6 58 -20 107 -32 121 -29 188 -17 291 53
199 133 297 344 251 543 -37 160 -131 283 -273 358 -99 52 -196 72 -288 60z
m198 -206 c77 -35 122 -79 162 -159 30 -61 35 -80 35 -142 0 -61 -5 -82 -33
-141 -64 -134 -169 -200 -400 -254 -120 -28 -125 -28 -131 12 -22 158 -24 168
-50 188 -102 80 -108 252 -13 386 38 54 92 91 176 120 83 30 176 26 254 -10z"/>
<path d="M1605 3280 c-44 -44 -82 -80 -85 -80 -3 0 -21 23 -40 51 -19 28 -45
60 -59 70 -34 27 -92 25 -119 -4 -29 -31 -28 -67 6 -110 15 -19 46 -59 69 -89
24 -30 47 -73 53 -101 7 -26 16 -50 20 -52 22 -14 286 246 318 312 17 35 17
35 -11 59 -45 39 -65 32 -152 -56z"/>
<path d="M3031 3009 c-86 -12 -269 -65 -385 -113 -111 -46 -481 -210 -733
-325 -175 -80 -242 -96 -408 -95 -99 0 -179 6 -275 23 -153 25 -179 22 -205
-29 -20 -39 -13 -76 26 -129 49 -69 123 -94 309 -106 107 -7 294 8 385 31 156
39 344 115 620 251 109 54 334 156 433 197 166 69 328 91 479 65 77 -14 103
-8 142 32 60 59 31 147 -60 183 -51 21 -226 29 -328 15z"/>
<path d="M2985 2469 c-123 -16 -173 -34 -530 -189 -479 -208 -526 -227 -624
-255 -180 -50 -388 -55 -590 -14 -134 27 -166 25 -202 -10 -35 -35 -37 -68 -8
-127 24 -52 63 -78 150 -101 93 -25 447 -25 574 0 163 32 360 104 585 212 408
196 515 236 669 255 94 11 164 8 279 -12 100 -17 162 23 162 104 0 52 -35 87
-115 117 -70 27 -235 36 -350 20z"/>
</g>
</svg>
